#N canvas 0 0 100 100 pdgen;
#X obj -95 -152 notein ;
#X obj -92 -120 pack float float ;
#X obj -72 -128 poly 8 ;
#X obj -59 -110 pack float float float ;
#X obj -7 -157 route 1 2 3 4 5 6 7 8 ;
#X obj 5 136 +~ ;
#X obj 5 134 +~ ;
#X obj -38 -110 unpack float float ;
#X obj -59 -42 mtof ;
#X obj -44 -70 / 1270 ;
#X msg -46 -21 \$1 10 ;
#X obj -44 36 line~ ;
#X obj -59 6 osc~ ;
#X obj -69 21 *~ 50 ;
#X obj -67 34 +~ ;
#X obj -54 65 osc~ ;
#X obj -33 91 *~ ;
#X obj 23 -113 unpack float float ;
#X obj 39 -56 mtof ;
#X obj 31 -64 / 1270 ;
#X msg 32 -13 \$1 10 ;
#X obj 30 38 line~ ;
#X obj 40 -9 osc~ ;
#X obj 45 1 *~ 50 ;
#X obj 43 16 +~ ;
#X obj 36 54 osc~ ;
#X obj 25 85 *~ ;
#X obj -26 -125 unpack float float ;
#X obj -47 -65 mtof ;
#X obj -25 -83 / 1270 ;
#X msg -24 -34 \$1 10 ;
#X obj -25 21 line~ ;
#X obj -47 -18 osc~ ;
#X obj -57 -9 *~ 50 ;
#X obj -54 6 +~ ;
#X obj -43 45 osc~ ;
#X obj -23 77 *~ ;
#X obj 16 -106 unpack float float ;
#X obj 48 -41 mtof ;
#X obj 12 -64 / 1270 ;
#X msg 15 -15 \$1 10 ;
#X obj 21 42 line~ ;
#X obj 52 7 osc~ ;
#X obj 64 21 *~ 50 ;
#X obj 61 35 +~ ;
#X obj 49 68 osc~ ;
#X obj 29 94 *~ ;
#X obj 5 -124 unpack float float ;
#X obj -2 -64 mtof ;
#X obj 22 -84 / 1270 ;
#X msg 24 -35 \$1 10 ;
#X obj 17 20 line~ ;
#X obj -3 -19 osc~ ;
#X obj -7 -7 *~ 50 ;
#X obj -5 8 +~ ;
#X obj 0 45 osc~ ;
#X obj 4 76 *~ ;
#X obj -22 -104 unpack float float ;
#X obj -28 -40 mtof ;
#X obj -26 -59 / 1270 ;
#X msg -26 -8 \$1 10 ;
#X obj -20 46 line~ ;
#X obj -27 7 osc~ ;
#X obj -32 21 *~ 50 ;
#X obj -29 35 +~ ;
#X obj -23 67 osc~ ;
#X obj -13 94 *~ ;
#X obj 34 -120 unpack float float ;
#X obj 63 -64 mtof ;
#X obj 41 -78 / 1270 ;
#X msg 45 -28 \$1 10 ;
#X obj 44 26 line~ ;
#X obj 66 -18 osc~ ;
#X obj 77 -8 *~ 50 ;
#X obj 76 7 +~ ;
#X obj 65 47 osc~ ;
#X obj 41 79 *~ ;
#X obj 0 -120 unpack float float ;
#X obj 3 -57 mtof ;
#X obj 3 -81 / 1270 ;
#X msg 6 -33 \$1 10 ;
#X obj 6 25 line~ ;
#X obj 6 -11 osc~ ;
#X obj 8 1 *~ 50 ;
#X obj 6 15 +~ ;
#X obj 6 52 osc~ ;
#X obj 6 82 *~ ;
#X obj 5 185 dac~ ;
#X connect 1 0 2 0;
#X connect 2 0 3 0;
#X connect 2 1 3 1;
#X connect 2 2 3 2;
#X connect 3 0 4 0;
#X connect 9 0 10 0;
#X connect 10 0 11 0;
#X connect 8 0 12 0;
#X connect 12 0 13 0;
#X connect 13 0 14 0;
#X connect 8 0 14 1;
#X connect 14 0 15 0;
#X connect 15 0 16 0;
#X connect 11 0 16 1;
#X connect 12 0 16 0;
#X connect 4 0 7 0;
#X connect 7 0 8 0;
#X connect 7 1 9 0;
#X connect 16 0 5 0;
#X connect 16 0 6 0;
#X connect 19 0 20 0;
#X connect 20 0 21 0;
#X connect 18 0 22 0;
#X connect 22 0 23 0;
#X connect 23 0 24 0;
#X connect 18 0 24 1;
#X connect 24 0 25 0;
#X connect 25 0 26 0;
#X connect 21 0 26 1;
#X connect 22 0 26 0;
#X connect 4 1 17 0;
#X connect 17 0 18 0;
#X connect 17 1 19 0;
#X connect 26 0 5 0;
#X connect 26 0 6 0;
#X connect 29 0 30 0;
#X connect 30 0 31 0;
#X connect 28 0 32 0;
#X connect 32 0 33 0;
#X connect 33 0 34 0;
#X connect 28 0 34 1;
#X connect 34 0 35 0;
#X connect 35 0 36 0;
#X connect 31 0 36 1;
#X connect 32 0 36 0;
#X connect 4 2 27 0;
#X connect 27 0 28 0;
#X connect 27 1 29 0;
#X connect 36 0 5 0;
#X connect 36 0 6 0;
#X connect 39 0 40 0;
#X connect 40 0 41 0;
#X connect 38 0 42 0;
#X connect 42 0 43 0;
#X connect 43 0 44 0;
#X connect 38 0 44 1;
#X connect 44 0 45 0;
#X connect 45 0 46 0;
#X connect 41 0 46 1;
#X connect 42 0 46 0;
#X connect 4 3 37 0;
#X connect 37 0 38 0;
#X connect 37 1 39 0;
#X connect 46 0 5 0;
#X connect 46 0 6 0;
#X connect 49 0 50 0;
#X connect 50 0 51 0;
#X connect 48 0 52 0;
#X connect 52 0 53 0;
#X connect 53 0 54 0;
#X connect 48 0 54 1;
#X connect 54 0 55 0;
#X connect 55 0 56 0;
#X connect 51 0 56 1;
#X connect 52 0 56 0;
#X connect 4 4 47 0;
#X connect 47 0 48 0;
#X connect 47 1 49 0;
#X connect 56 0 5 0;
#X connect 56 0 6 0;
#X connect 59 0 60 0;
#X connect 60 0 61 0;
#X connect 58 0 62 0;
#X connect 62 0 63 0;
#X connect 63 0 64 0;
#X connect 58 0 64 1;
#X connect 64 0 65 0;
#X connect 65 0 66 0;
#X connect 61 0 66 1;
#X connect 62 0 66 0;
#X connect 4 5 57 0;
#X connect 57 0 58 0;
#X connect 57 1 59 0;
#X connect 66 0 5 0;
#X connect 66 0 6 0;
#X connect 69 0 70 0;
#X connect 70 0 71 0;
#X connect 68 0 72 0;
#X connect 72 0 73 0;
#X connect 73 0 74 0;
#X connect 68 0 74 1;
#X connect 74 0 75 0;
#X connect 75 0 76 0;
#X connect 71 0 76 1;
#X connect 72 0 76 0;
#X connect 4 6 67 0;
#X connect 67 0 68 0;
#X connect 67 1 69 0;
#X connect 76 0 5 0;
#X connect 76 0 6 0;
#X connect 79 0 80 0;
#X connect 80 0 81 0;
#X connect 78 0 82 0;
#X connect 82 0 83 0;
#X connect 83 0 84 0;
#X connect 78 0 84 1;
#X connect 84 0 85 0;
#X connect 85 0 86 0;
#X connect 81 0 86 1;
#X connect 82 0 86 0;
#X connect 4 7 77 0;
#X connect 77 0 78 0;
#X connect 77 1 79 0;
#X connect 86 0 5 0;
#X connect 86 0 6 0;
#X connect 0 0 1 0;
#X connect 0 1 1 1;
#X connect 5 0 87 0;
#X connect 6 0 87 1;

