#N canvas 0 0 100 100 pdgen;
#X obj -95 -152 notein ;
#X obj -92 -121 pack float float ;
#X obj -74 -130 poly 8 ;
#X obj -62 -113 pack float float float ;
#X obj -13 -167 route 1 2 3 4 5 6 7 8 ;
#X obj 5 153 +~ ;
#X obj 5 151 +~ ;
#X obj -33 -120 unpack float float ;
#X obj -48 -28 mtof ;
#X floatatom -33 -104 5 0 0 0 - - - ;
#X obj -17 -59 / 1270 ;
#X msg -9 -3 \$1 10 ;
#X obj -13 58 line~ ;
#X obj -46 30 osc~ ;
#X obj -60 51 *~ ;
#X obj -51 -72 * 500 ;
#X msg -65 -33 0 \, \$1 5000 ;
#X obj -70 8 line~ ;
#X obj -53 57 +~ ;
#X obj -39 88 osc~ ;
#X obj -20 112 *~ ;
#X obj -12 -138 unpack float float ;
#X obj -41 -54 mtof ;
#X floatatom 16 -125 5 0 0 0 - - - ;
#X obj 23 -75 / 1270 ;
#X msg 17 -18 \$1 10 ;
#X obj 2 38 line~ ;
#X obj -42 1 osc~ ;
#X obj -48 18 *~ ;
#X obj 9 -96 * 500 ;
#X msg -9 -62 0 \, \$1 5000 ;
#X obj -33 -23 line~ ;
#X obj -50 27 +~ ;
#X obj -37 65 osc~ ;
#X obj -16 96 *~ ;
#X obj 0 -125 unpack float float ;
#X obj -23 -41 mtof ;
#X floatatom 35 -101 5 0 0 0 - - - ;
#X obj 38 -50 / 1270 ;
#X msg 29 2 \$1 10 ;
#X obj 13 56 line~ ;
#X obj -20 14 osc~ ;
#X obj -17 38 *~ ;
#X obj 43 -71 * 500 ;
#X msg 32 -33 0 \, \$1 5000 ;
#X obj 10 2 line~ ;
#X obj -27 43 +~ ;
#X obj -19 76 osc~ ;
#X obj -3 105 *~ ;
#X obj 17 -132 unpack float float ;
#X obj 56 -50 mtof ;
#X floatatom 5 -111 5 0 0 0 - - - ;
#X obj 5 -69 / 1270 ;
#X msg 16 -18 \$1 10 ;
#X obj 30 37 line~ ;
#X obj 59 7 osc~ ;
#X obj 65 27 *~ ;
#X obj 16 -80 * 500 ;
#X msg 36 -43 0 \, \$1 5000 ;
#X obj 57 -8 line~ ;
#X obj 67 32 +~ ;
#X obj 57 66 osc~ ;
#X obj 36 96 *~ ;
#X obj -16 -116 unpack float float ;
#X obj 4 -28 mtof ;
#X floatatom -29 -94 5 0 0 0 - - - ;
#X obj -16 -48 / 1270 ;
#X msg 0 2 \$1 10 ;
#X obj 11 58 line~ ;
#X obj 11 28 osc~ ;
#X obj 3 55 *~ ;
#X obj -40 -60 * 500 ;
#X msg -37 -22 0 \, \$1 5000 ;
#X obj -20 18 line~ ;
#X obj 14 58 +~ ;
#X obj 18 86 osc~ ;
#X obj 12 111 *~ ;
#X obj 1 -123 unpack float float ;
#X obj -1 -34 mtof ;
#X floatatom 26 -108 5 0 0 0 - - - ;
#X obj 43 -61 / 1270 ;
#X msg 45 -7 \$1 10 ;
#X obj 35 52 line~ ;
#X obj 5 22 osc~ ;
#X obj 1 43 *~ ;
#X obj 21 -76 * 500 ;
#X msg 13 -37 0 \, \$1 5000 ;
#X obj 8 3 line~ ;
#X obj 0 50 +~ ;
#X obj 6 81 osc~ ;
#X obj 12 106 *~ ;
#X obj -19 -132 unpack float float ;
#X obj -30 -58 mtof ;
#X floatatom -12 -108 5 0 0 0 - - - ;
#X obj -17 -63 / 1270 ;
#X msg -20 -12 \$1 10 ;
#X obj -19 42 line~ ;
#X obj -26 -2 osc~ ;
#X obj -28 16 *~ ;
#X obj -8 -82 * 500 ;
#X msg -10 -51 0 \, \$1 5000 ;
#X obj -20 -18 line~ ;
#X obj -33 23 +~ ;
#X obj -27 61 osc~ ;
#X obj -14 94 *~ ;
#X obj 16 -124 unpack float float ;
#X obj 33 -42 mtof ;
#X floatatom 32 -102 5 0 0 0 - - - ;
#X obj 29 -57 / 1270 ;
#X msg 32 -7 \$1 10 ;
#X obj 32 47 line~ ;
#X obj 38 15 osc~ ;
#X obj 51 36 *~ ;
#X obj 49 -69 * 500 ;
#X msg 60 -33 0 \, \$1 5000 ;
#X obj 61 1 line~ ;
#X obj 45 39 +~ ;
#X obj 39 73 osc~ ;
#X obj 27 101 *~ ;
#X obj 5 201 dac~ ;
#X connect 1 0 2 0;
#X connect 2 0 3 0;
#X connect 2 1 3 1;
#X connect 2 2 3 2;
#X connect 3 0 4 0;
#X connect 10 0 11 0;
#X connect 11 0 12 0;
#X connect 9 0 10 0;
#X connect 8 0 13 0;
#X connect 15 0 16 0;
#X connect 16 0 17 0;
#X connect 17 0 14 1;
#X connect 9 0 15 0;
#X connect 13 0 14 0;
#X connect 14 0 18 0;
#X connect 8 0 18 1;
#X connect 18 0 19 0;
#X connect 19 0 20 0;
#X connect 12 0 20 1;
#X connect 13 0 20 0;
#X connect 4 0 7 0;
#X connect 7 0 8 0;
#X connect 7 1 9 0;
#X connect 20 0 5 0;
#X connect 20 0 6 0;
#X connect 24 0 25 0;
#X connect 25 0 26 0;
#X connect 23 0 24 0;
#X connect 22 0 27 0;
#X connect 29 0 30 0;
#X connect 30 0 31 0;
#X connect 31 0 28 1;
#X connect 23 0 29 0;
#X connect 27 0 28 0;
#X connect 28 0 32 0;
#X connect 22 0 32 1;
#X connect 32 0 33 0;
#X connect 33 0 34 0;
#X connect 26 0 34 1;
#X connect 27 0 34 0;
#X connect 4 1 21 0;
#X connect 21 0 22 0;
#X connect 21 1 23 0;
#X connect 34 0 5 0;
#X connect 34 0 6 0;
#X connect 38 0 39 0;
#X connect 39 0 40 0;
#X connect 37 0 38 0;
#X connect 36 0 41 0;
#X connect 43 0 44 0;
#X connect 44 0 45 0;
#X connect 45 0 42 1;
#X connect 37 0 43 0;
#X connect 41 0 42 0;
#X connect 42 0 46 0;
#X connect 36 0 46 1;
#X connect 46 0 47 0;
#X connect 47 0 48 0;
#X connect 40 0 48 1;
#X connect 41 0 48 0;
#X connect 4 2 35 0;
#X connect 35 0 36 0;
#X connect 35 1 37 0;
#X connect 48 0 5 0;
#X connect 48 0 6 0;
#X connect 52 0 53 0;
#X connect 53 0 54 0;
#X connect 51 0 52 0;
#X connect 50 0 55 0;
#X connect 57 0 58 0;
#X connect 58 0 59 0;
#X connect 59 0 56 1;
#X connect 51 0 57 0;
#X connect 55 0 56 0;
#X connect 56 0 60 0;
#X connect 50 0 60 1;
#X connect 60 0 61 0;
#X connect 61 0 62 0;
#X connect 54 0 62 1;
#X connect 55 0 62 0;
#X connect 4 3 49 0;
#X connect 49 0 50 0;
#X connect 49 1 51 0;
#X connect 62 0 5 0;
#X connect 62 0 6 0;
#X connect 66 0 67 0;
#X connect 67 0 68 0;
#X connect 65 0 66 0;
#X connect 64 0 69 0;
#X connect 71 0 72 0;
#X connect 72 0 73 0;
#X connect 73 0 70 1;
#X connect 65 0 71 0;
#X connect 69 0 70 0;
#X connect 70 0 74 0;
#X connect 64 0 74 1;
#X connect 74 0 75 0;
#X connect 75 0 76 0;
#X connect 68 0 76 1;
#X connect 69 0 76 0;
#X connect 4 4 63 0;
#X connect 63 0 64 0;
#X connect 63 1 65 0;
#X connect 76 0 5 0;
#X connect 76 0 6 0;
#X connect 80 0 81 0;
#X connect 81 0 82 0;
#X connect 79 0 80 0;
#X connect 78 0 83 0;
#X connect 85 0 86 0;
#X connect 86 0 87 0;
#X connect 87 0 84 1;
#X connect 79 0 85 0;
#X connect 83 0 84 0;
#X connect 84 0 88 0;
#X connect 78 0 88 1;
#X connect 88 0 89 0;
#X connect 89 0 90 0;
#X connect 82 0 90 1;
#X connect 83 0 90 0;
#X connect 4 5 77 0;
#X connect 77 0 78 0;
#X connect 77 1 79 0;
#X connect 90 0 5 0;
#X connect 90 0 6 0;
#X connect 94 0 95 0;
#X connect 95 0 96 0;
#X connect 93 0 94 0;
#X connect 92 0 97 0;
#X connect 99 0 100 0;
#X connect 100 0 101 0;
#X connect 101 0 98 1;
#X connect 93 0 99 0;
#X connect 97 0 98 0;
#X connect 98 0 102 0;
#X connect 92 0 102 1;
#X connect 102 0 103 0;
#X connect 103 0 104 0;
#X connect 96 0 104 1;
#X connect 97 0 104 0;
#X connect 4 6 91 0;
#X connect 91 0 92 0;
#X connect 91 1 93 0;
#X connect 104 0 5 0;
#X connect 104 0 6 0;
#X connect 108 0 109 0;
#X connect 109 0 110 0;
#X connect 107 0 108 0;
#X connect 106 0 111 0;
#X connect 113 0 114 0;
#X connect 114 0 115 0;
#X connect 115 0 112 1;
#X connect 107 0 113 0;
#X connect 111 0 112 0;
#X connect 112 0 116 0;
#X connect 106 0 116 1;
#X connect 116 0 117 0;
#X connect 117 0 118 0;
#X connect 110 0 118 1;
#X connect 111 0 118 0;
#X connect 4 7 105 0;
#X connect 105 0 106 0;
#X connect 105 1 107 0;
#X connect 118 0 5 0;
#X connect 118 0 6 0;
#X connect 0 0 1 0;
#X connect 0 1 1 1;
#X connect 5 0 119 0;
#X connect 6 0 119 1;

